<svg version="1.1" id="Layer_1" xmlns="http://www.w3.org/2000/svg" xmlns:xlink="http://www.w3.org/1999/xlink" x="0px" y="0px" viewBox="0 0 500 500" style="width: 539px;" xml:space="preserve" data-imageid="online-store-76" imageName="Online Store" class="illustrations_image">
<style type="text/css">
	.st0_online-store-76{fill:#68E1FD;}
	.st1_online-store-76{fill:#093F68;}
	.st2_online-store-76{fill:#FFFFFF;}
	.st3_online-store-76{fill:#F56132;}
	.st4_online-store-76{fill:#DFEAEF;}
	.st5_online-store-76{fill:#FFBC0E;}
	.st6_online-store-76{fill:#70CC40;}
</style>
<g id="device_online-store-76">
	<path class="st0_online-store-76 targetColor" d="M345.6,120.3v259.4c0,9.8-8.3,17.8-18.5,17.8H179.9c-10.2,0-18.5-8-18.5-17.8V120.3c0-9.8,8.3-17.8,18.5-17.8&#10;&#9;&#9;h147.2C337.3,102.5,345.6,110.5,345.6,120.3z" style="fill: rgb(104, 225, 253);"/>
	<path class="st1_online-store-76" d="M327.1,399.3H179.9c-11.2,0-20.4-8.8-20.4-19.6V120.3c0-10.8,9.1-19.6,20.4-19.6h147.2&#10;&#9;&#9;c11.2,0,20.3,8.8,20.3,19.6v259.4C347.5,390.5,338.4,399.3,327.1,399.3z M179.9,104.3c-9.2,0-16.7,7.2-16.7,16v259.4&#10;&#9;&#9;c0,8.8,7.5,16,16.7,16h147.2c9.2,0,16.7-7.2,16.7-16V120.3c0-8.8-7.5-16-16.7-16L179.9,104.3z"/>
	<rect x="162" y="136.9" class="st2_online-store-76" width="183.1" height="220.9"/>
	<path class="st1_online-store-76" d="M345,359.5H162c-1,0-1.8-0.8-1.8-1.8V136.9c0-1,0.8-1.8,1.8-1.8c0,0,0,0,0,0h183c1,0,1.8,0.8,1.8,1.8&#10;&#9;&#9;c0,0,0,0,0,0v220.9C346.9,358.7,346.1,359.5,345,359.5z M163.8,355.9h179.4V138.7H163.8V355.9z"/>
	<circle class="st1_online-store-76" cx="281.8" cy="121.4" r="2.9"/>
	<path class="st1_online-store-76" d="M268.1,123.3h-45.8c-1-0.1-1.8-1-1.7-2c0.1-0.9,0.8-1.6,1.7-1.7h45.8c1-0.1,1.9,0.7,2,1.7c0.1,1-0.7,1.9-1.7,2&#10;&#9;&#9;C268.3,123.3,268.2,123.3,268.1,123.3z"/>
	<path class="st1_online-store-76" d="M253.5,388.8c-6.8,0-12.3-5.5-12.3-12.2c0-6.8,5.5-12.3,12.2-12.3s12.3,5.5,12.3,12.2c0,0,0,0,0,0&#10;&#9;&#9;C265.7,383.3,260.3,388.8,253.5,388.8z M253.5,367.9c-4.7,0-8.6,3.8-8.6,8.6c0,4.7,3.8,8.6,8.6,8.6c4.7,0,8.6-3.8,8.6-8.6&#10;&#9;&#9;c0,0,0,0,0,0C262.1,371.8,258.2,368,253.5,367.9z"/>
	<polygon class="st3_online-store-76" points="184.6,168.4 139.3,168.4 163.9,136.5 199.5,136.5 &#9;"/>
	<path class="st1_online-store-76" d="M184.6,170.2h-45.3c-1,0-1.8-0.8-1.9-1.8c0-0.4,0.1-0.9,0.4-1.2l24.6-31.9c0.3-0.4,0.9-0.7,1.4-0.7h35.6&#10;&#9;&#9;c1,0,1.8,0.8,1.8,1.8c0,0.3-0.1,0.5-0.2,0.8l-14.9,31.9C186,169.7,185.3,170.2,184.6,170.2z M143.1,166.5h40.3l13.2-28.2h-31.8&#10;&#9;&#9;L143.1,166.5z"/>
	<path class="st3_online-store-76" d="M139.3,168.4h45.2l0,0v2.4c0,12.5-10.1,22.6-22.6,22.6l0,0c-12.5,0-22.6-10.1-22.6-22.6c0,0,0,0,0,0&#10;&#9;&#9;L139.3,168.4L139.3,168.4L139.3,168.4z"/>
	<path class="st1_online-store-76" d="M163.3,195.3h-2.7c-12.8,0-23.1-10.4-23.1-23.1v-3.8c0-1,0.8-1.8,1.8-1.8c0,0,0,0,0,0h45.3&#10;&#9;&#9;c1,0,1.8,0.8,1.8,1.8c0,0,0,0,0,0v3.8C186.4,184.9,176.1,195.2,163.3,195.3z M141.2,170.2v2c0,10.7,8.7,19.4,19.4,19.4h2.7&#10;&#9;&#9;c10.7,0,19.4-8.7,19.4-19.4v-2H141.2z"/>
	<polygon class="st2_online-store-76" points="230.7,168.4 185.5,168.4 200.2,136.5 235.8,136.5 &#9;"/>
	<path class="st1_online-store-76" d="M230.7,170.2h-45.3c-1,0-1.8-0.8-1.8-1.8c0-0.3,0.1-0.5,0.2-0.8l14.7-31.9c0.3-0.6,1-1.1,1.7-1.1h35.6&#10;&#9;&#9;c0.5,0,1.1,0.2,1.4,0.6c0.3,0.4,0.5,1,0.4,1.5l-5,31.9C232.4,169.5,231.6,170.2,230.7,170.2z M188.3,166.5h40.8l4.4-28.2h-32.2&#10;&#9;&#9;L188.3,166.5z"/>
	<path class="st2_online-store-76" d="M185.5,168.4h45.2l0,0v2.8c0,12.3-10,22.3-22.3,22.3h-0.7c-12.3,0-22.3-10-22.3-22.3L185.5,168.4L185.5,168.4&#10;&#9;&#9;L185.5,168.4z"/>
	<path class="st1_online-store-76" d="M209.4,195.3h-2.7c-12.8,0-23.1-10.4-23.1-23.1v-3.8c0-1,0.8-1.8,1.8-1.8c0,0,0,0,0,0h45.3&#10;&#9;&#9;c1,0,1.8,0.8,1.8,1.8c0,0,0,0,0,0v3.8C232.5,184.9,222.2,195.2,209.4,195.3z M187.3,170.2v2c0,10.7,8.7,19.4,19.4,19.4h2.7&#10;&#9;&#9;c10.7,0,19.4-8.7,19.4-19.4v-2H187.3z"/>
	<polygon class="st3_online-store-76" points="276.9,168.4 231.6,168.4 236.5,136.5 272,136.5 &#9;"/>
	<path class="st1_online-store-76" d="M276.9,170.2h-45.3c-1,0-1.8-0.8-1.8-1.8c0-0.1,0-0.2,0-0.3l4.9-31.9c0.1-0.9,0.9-1.6,1.8-1.6H272&#10;&#9;&#9;c0.9,0,1.7,0.7,1.8,1.6l4.8,31.9c0.2,1-0.5,1.9-1.5,2.1C277,170.2,276.9,170.2,276.9,170.2L276.9,170.2z M233.8,166.5h41l-4.3-28.2&#10;&#9;&#9;H238L233.8,166.5z"/>
	<path class="st3_online-store-76" d="M231.6,168.4h45.2l0,0v2.4c0,12.5-10.1,22.6-22.6,22.6c0,0,0,0,0,0l0,0c-12.5,0-22.6-10.1-22.6-22.6&#10;&#9;&#9;c0,0,0,0,0,0L231.6,168.4L231.6,168.4z"/>
	<path class="st1_online-store-76" d="M255.6,195.3h-2.7c-12.8,0-23.1-10.4-23.1-23.1v-3.8c0-1,0.8-1.8,1.8-1.8c0,0,0,0,0,0h45.3&#10;&#9;&#9;c1,0,1.8,0.8,1.8,1.8c0,0,0,0,0,0v3.8C278.7,184.9,268.3,195.2,255.6,195.3z M233.4,170.2v2c0,10.7,8.7,19.4,19.4,19.4h2.7&#10;&#9;&#9;c10.7,0,19.4-8.7,19.4-19.5v-2L233.4,170.2z"/>
	<polygon class="st2_online-store-76" points="323,168.4 277.8,168.4 272.7,136.5 308.3,136.5 &#9;"/>
	<path class="st1_online-store-76" d="M323,170.2h-45.2c-0.9,0-1.7-0.7-1.8-1.5l-5-31.9c-0.1-0.5,0.1-1.1,0.4-1.5c0.3-0.4,0.9-0.6,1.4-0.6h35.6&#10;&#9;&#9;c0.7,0,1.4,0.4,1.7,1.1l14.7,31.9c0.3,0.6,0.2,1.2-0.1,1.8C324.2,169.9,323.6,170.2,323,170.2z M279.3,166.5h40.8l-13-28.2h-32.3&#10;&#9;&#9;L279.3,166.5z"/>
	<path class="st2_online-store-76" d="M277.8,168.4H323l0,0v3.6c0,11.8-9.6,21.4-21.5,21.4l0,0h-2.4c-11.8,0-21.4-9.6-21.4-21.4V168.4L277.8,168.4z"/>
	<path class="st1_online-store-76" d="M301.7,195.3H299c-12.8,0-23.1-10.4-23.1-23.1v-3.8c0-1,0.8-1.8,1.8-1.8c0,0,0,0,0,0H323c1,0,1.8,0.8,1.8,1.8&#10;&#9;&#9;c0,0,0,0,0,0v3.8C324.8,184.9,314.5,195.2,301.7,195.3z M279.6,170.2v2c0,10.7,8.7,19.4,19.4,19.4h2.7c10.7,0,19.4-8.7,19.5-19.4&#10;&#9;&#9;v-2L279.6,170.2z"/>
	<polygon class="st3_online-store-76" points="369.1,168.4 323.9,168.4 309,136.5 344.5,136.5 &#9;"/>
	<path class="st1_online-store-76" d="M369.1,170.2h-45.2c-0.7,0-1.4-0.4-1.7-1.1l-14.9-31.9c-0.3-0.6-0.2-1.2,0.1-1.8c0.3-0.5,0.9-0.8,1.5-0.9h35.6&#10;&#9;&#9;c0.6,0,1.1,0.3,1.5,0.7l24.6,31.9c0.6,0.8,0.5,1.9-0.2,2.6C370,170.1,369.6,170.2,369.1,170.2L369.1,170.2z M325.1,166.5h40.4&#10;&#9;&#9;l-21.8-28.2h-31.8L325.1,166.5z"/>
	<path class="st3_online-store-76" d="M323.9,168.4h45.2l0,0v5.2c0,11-8.9,19.8-19.8,19.8h-5.6c-11,0-19.8-8.9-19.8-19.8V168.4L323.9,168.4z"/>
	<path class="st1_online-store-76" d="M347.9,195.3h-2.7c-12.8,0-23.1-10.4-23.1-23.1v-3.8c0-1,0.8-1.8,1.8-1.8h45.2c1,0,1.8,0.8,1.8,1.8v3.8&#10;&#9;&#9;C371,184.9,360.6,195.2,347.9,195.3z M325.7,170.2v2c0,10.7,8.7,19.4,19.5,19.4h2.7c10.7,0,19.4-8.7,19.5-19.4v-2H325.7z"/>
	<path class="st2_online-store-76" d="M206.2,313.3h96.1c3.9,0,7,3.1,7,7V332c0,3.9-3.1,7-7,7h-96.1c-3.9,0-7-3.1-7-7v-11.7&#10;&#9;&#9;C199.2,316.5,202.3,313.3,206.2,313.3z"/>
	<path class="st4_online-store-76" d="M296.5,340.8H212c-8.1,0-14.6-6.6-14.6-14.7c0-8.1,6.6-14.6,14.6-14.6h84.5c8.1,0,14.6,6.6,14.6,14.7&#10;&#9;&#9;C311.1,334.2,304.6,340.8,296.5,340.8z M212,315.2c-6.1-0.4-11.3,4.1-11.8,10.2s4.1,11.3,10.2,11.8c0.5,0,1.1,0,1.6,0h84.5&#10;&#9;&#9;c6.1,0.4,11.3-4.1,11.8-10.2s-4.1-11.3-10.2-11.8c-0.5,0-1.1,0-1.6,0H212z"/>
</g>
<g id="paper-bag_online-store-76">
	<polygon class="st5_online-store-76" points="384.8,397.5 313.4,397.5 319,326.1 379.2,326.1 &#9;"/>
	<path class="st1_online-store-76" d="M384.8,399.3h-71.3c-1,0-1.8-0.8-1.8-1.8c0-0.1,0-0.1,0-0.2l5.5-71.3c0.1-1,0.9-1.7,1.8-1.7h60.3&#10;&#9;&#9;c1,0,1.8,0.7,1.8,1.7l5.5,71.3c0,0.5-0.1,1-0.5,1.4C385.8,399.1,385.3,399.3,384.8,399.3z M315.4,395.7h67.4l-5.2-67.7h-56.9&#10;&#9;&#9;L315.4,395.7z"/>
	<path class="st1_online-store-76" d="M362,336.1c-1,0-1.8-0.8-1.8-1.8c0,0,0,0,0,0V321c0-6.1-5-11.1-11.1-11.1c-6.1,0-11.1,5-11.1,11.1v13.3&#10;&#9;&#9;c-0.1,1-1,1.8-2,1.7c-0.9-0.1-1.6-0.8-1.7-1.7V321c0-8.1,6.6-14.7,14.7-14.7c8.1,0,14.7,6.6,14.7,14.7v13.3&#10;&#9;&#9;C363.8,335.3,363,336.1,362,336.1C362,336.1,362,336.1,362,336.1z"/>
</g>
<g id="boxes_online-store-76">
	<rect x="115.2" y="343.4" class="st6_online-store-76" width="77.2" height="54.1"/>
	<path class="st1_online-store-76" d="M192.4,399.3h-77.2c-1,0-1.8-0.8-1.8-1.8v-54.1c0-1,0.8-1.8,1.8-1.8h77.2c1,0,1.8,0.8,1.8,1.8c0,0,0,0,0,0&#10;&#9;&#9;v54.1C194.2,398.5,193.4,399.3,192.4,399.3C192.4,399.3,192.4,399.3,192.4,399.3z M117.1,395.7h73.5v-50.4h-73.5L117.1,395.7z"/>
	<rect x="144.6" y="343.4" class="st5_online-store-76" width="18.4" height="18.4"/>
	<path class="st1_online-store-76" d="M163,363.7h-18.4c-1,0-1.8-0.8-1.8-1.8c0,0,0,0,0,0v-18.4c0-1,0.8-1.8,1.8-1.8c0,0,0,0,0,0H163&#10;&#9;&#9;c1,0,1.8,0.8,1.8,1.8v18.4C164.8,362.8,164,363.7,163,363.7z M146.4,360h14.7v-14.8h-14.7V360z"/>
	<path class="st1_online-store-76" d="M139,388.8h-12.1c-1,0.1-1.9-0.7-2-1.7c-0.1-1,0.7-1.9,1.7-2c0.1,0,0.2,0,0.3,0H139c1-0.1,1.9,0.7,2,1.7&#10;&#9;&#9;c0.1,1-0.7,1.9-1.7,2C139.2,388.8,139.1,388.8,139,388.8z"/>
	<rect x="128.1" y="300" class="st3_online-store-76" width="61.9" height="43.4"/>
	<path class="st1_online-store-76" d="M190.1,345.2h-61.9c-1,0-1.8-0.8-1.8-1.8V300c0-1,0.8-1.8,1.8-1.8h61.9c1,0,1.8,0.8,1.8,1.8v43.4&#10;&#9;&#9;C191.9,344.4,191.1,345.2,190.1,345.2C190.1,345.3,190.1,345.3,190.1,345.2z M130,341.6h58.3v-39.7H130V341.6z"/>
	<rect x="151.7" y="300" class="st5_online-store-76" width="14.8" height="14.8"/>
	<path class="st1_online-store-76" d="M166.5,316.6h-14.8c-1,0-1.8-0.8-1.8-1.8V300c0-1,0.8-1.8,1.8-1.8h14.8c1,0,1.8,0.8,1.8,1.8v14.8&#10;&#9;&#9;C168.3,315.8,167.5,316.6,166.5,316.6C166.5,316.6,166.5,316.6,166.5,316.6z M153.5,313h11.1v-11.1h-11.1V313z"/>
	<path class="st1_online-store-76" d="M147.2,336.8h-9.7c-1-0.1-1.8-1-1.7-2c0.1-0.9,0.8-1.6,1.7-1.7h9.7c1-0.1,1.9,0.7,2,1.7c0.1,1-0.7,1.9-1.7,2&#10;&#9;&#9;C147.4,336.8,147.3,336.8,147.2,336.8z"/>
</g>
<g id="cart_online-store-76">
	<path class="st0_online-store-76 targetColor" d="M204.9,228.8h98.6c2.2,0,3.9,1.8,3.9,3.9v7.3c0,2.2-1.8,3.9-3.9,3.9h-98.6c-2.2,0-3.9-1.8-3.9-3.9v-7.3&#10;&#9;&#9;C201,230.5,202.8,228.8,204.9,228.8z" style="fill: rgb(104, 225, 253);"/>
	<path class="st1_online-store-76" d="M300.3,245.8h-92c-5,0-9.1-4.1-9.1-9.1V236c0-5,4.1-9.1,9.1-9.1h92c5,0,9.1,4.1,9.1,9.1v0.7&#10;&#9;&#9;C309.3,241.7,305.3,245.7,300.3,245.8z M208.3,230.6c-3,0-5.4,2.4-5.4,5.4v0.7c0,3,2.4,5.4,5.4,5.4h92c3,0,5.4-2.4,5.4-5.4V236&#10;&#9;&#9;c0-3-2.4-5.4-5.4-5.4L208.3,230.6z"/>
	<path class="st0_online-store-76 targetColor" d="M284.6,295.8h-60.7c-3.2-0.1-6-2.4-6.5-5.6l-8.8-46.3h91.3l-8.8,46.3C290.6,293.4,287.8,295.8,284.6,295.8z" style="fill: rgb(104, 225, 253);"/>
	<path class="st1_online-store-76" d="M284.6,297.7h-60.7c-4.1-0.1-7.6-3.1-8.3-7.1l-8.8-46.3c-0.2-1,0.5-2,1.5-2.1c0.1,0,0.2,0,0.3,0h91.3&#10;&#9;&#9;c1,0,1.8,0.8,1.8,1.8c0,0.1,0,0.2,0,0.3l-8.8,46.3C292.2,294.6,288.7,297.6,284.6,297.7z M210.8,245.8l8.4,44.1&#10;&#9;&#9;c0.4,2.3,2.4,4,4.7,4.1h60.7c2.4-0.1,4.3-1.8,4.7-4.1l8.4-44.1L210.8,245.8z"/>
	<path class="st1_online-store-76" d="M232.2,250.9h3.2c1.1,0,1.9,0.9,1.9,1.9v31.3c0,1.1-0.9,1.9-1.9,1.9h-3.2c-1.1,0-1.9-0.9-1.9-1.9v-31.3&#10;&#9;&#9;C230.3,251.7,231.1,250.9,232.2,250.9z"/>
	<path class="st1_online-store-76" d="M233.8,287.8c-3,0-5.4-2.4-5.4-5.4v-28.1c-0.1-3,2.2-5.5,5.1-5.6c3-0.1,5.5,2.2,5.6,5.1c0,0.2,0,0.3,0,0.5&#10;&#9;&#9;v28.1C239.2,285.4,236.8,287.8,233.8,287.8z M233.8,252.7c-0.9,0-1.7,0.8-1.7,1.7v28.1c-0.1,0.9,0.6,1.8,1.6,1.8&#10;&#9;&#9;c0.9,0.1,1.8-0.6,1.8-1.6c0-0.1,0-0.2,0-0.3v-28.1C235.5,253.5,234.7,252.7,233.8,252.7z"/>
	<path class="st1_online-store-76" d="M252.6,250.9h3.2c1.1,0,1.9,0.9,1.9,1.9v31.3c0,1.1-0.9,1.9-1.9,1.9h-3.2c-1.1,0-1.9-0.9-1.9-1.9v-31.3&#10;&#9;&#9;C250.7,251.7,251.6,250.9,252.6,250.9z"/>
	<path class="st1_online-store-76" d="M254.2,287.8c-3,0-5.4-2.4-5.4-5.4v-28.1c0-3,2.4-5.4,5.4-5.4c3,0,5.4,2.4,5.4,5.4v28.1&#10;&#9;&#9;C259.6,285.4,257.2,287.8,254.2,287.8z M254.2,252.7c-0.9,0-1.7,0.8-1.7,1.7v28.1c0,0.9,0.8,1.7,1.7,1.7c0.9,0,1.7-0.8,1.7-1.7&#10;&#9;&#9;c0,0,0,0,0,0v-28.1C255.9,253.5,255.2,252.7,254.2,252.7z"/>
	<path class="st1_online-store-76" d="M273.1,250.9h3.2c1.1,0,1.9,0.9,1.9,1.9v31.3c0,1.1-0.9,1.9-1.9,1.9h-3.2c-1.1,0-1.9-0.9-1.9-1.9v-31.3&#10;&#9;&#9;C271.2,251.7,272,250.9,273.1,250.9z"/>
	<path class="st1_online-store-76" d="M274.7,287.8c-3,0-5.4-2.4-5.4-5.4v-28.1c-0.1-3,2.2-5.5,5.1-5.6s5.5,2.2,5.6,5.1c0,0.2,0,0.3,0,0.5v28.1&#10;&#9;&#9;C280.1,285.4,277.7,287.8,274.7,287.8z M274.7,252.7c-0.9,0-1.7,0.8-1.7,1.7c0,0,0,0,0,0v28.1c-0.1,0.9,0.6,1.8,1.6,1.8&#10;&#9;&#9;s1.8-0.6,1.8-1.6c0-0.1,0-0.2,0-0.3v-28.1C276.4,253.5,275.6,252.7,274.7,252.7z"/>
	<path class="st0_online-store-76 targetColor" d="M213.6,239.1c-2,0-3.6-1.6-3.6-3.6c0-1.2,0.6-2.3,1.6-3l34.3-24c1.6-1.1,3.9-0.7,5,0.9s0.7,3.9-0.9,5&#10;&#9;&#9;l-34.3,23.9C215,238.8,214.3,239,213.6,239.1z" style="fill: rgb(104, 225, 253);"/>
	<path class="st1_online-store-76" d="M213.6,240.9c-3,0-5.5-2.4-5.5-5.5c0-1.8,0.9-3.4,2.3-4.5l34.3-24c2.5-1.7,5.9-1.1,7.6,1.4&#10;&#9;&#9;c1.7,2.5,1.2,5.9-1.3,7.6c0,0,0,0,0,0l-34.3,24C215.8,240.6,214.7,240.9,213.6,240.9z M247.9,209.7c-0.4,0-0.7,0.1-1,0.3l-34.3,24&#10;&#9;&#9;c-0.8,0.6-1,1.7-0.4,2.5c0.6,0.8,1.7,1,2.5,0.4l34.3-23.9c0.8-0.6,1-1.7,0.4-2.5c-0.3-0.4-0.7-0.7-1.2-0.7&#10;&#9;&#9;C248.1,209.7,248,209.7,247.9,209.7L247.9,209.7z"/>
	<path class="st0_online-store-76 targetColor" d="M294.9,239.1c2,0,3.6-1.6,3.6-3.6c0-1.2-0.6-2.3-1.6-3l-34.3-24c-1.6-1.1-3.9-0.7-5,0.9&#10;&#9;&#9;c-1.1,1.6-0.7,3.9,0.9,5l34.3,23.9C293.4,238.8,294.2,239,294.9,239.1z" style="fill: rgb(104, 225, 253);"/>
	<path class="st1_online-store-76" d="M294.9,240.9c-1.1,0-2.2-0.4-3.1-1l-34.3-24c-2.5-1.7-3.1-5.1-1.4-7.6c1.7-2.5,5.1-3.1,7.6-1.4L298,231&#10;&#9;&#9;c2.5,1.7,3.1,5.1,1.3,7.6C298.3,240.1,296.6,240.9,294.9,240.9L294.9,240.9z M260.6,209.7c-0.1,0-0.2,0-0.3,0&#10;&#9;&#9;c-1,0.2-1.6,1.1-1.4,2.1c0.1,0.5,0.3,0.9,0.7,1.2l34.3,23.9c0.8,0.5,1.9,0.3,2.5-0.4c0.6-0.8,0.4-1.9-0.4-2.5l-34.3-24&#10;&#9;&#9;C261.3,209.7,261,209.7,260.6,209.7L260.6,209.7z"/>
</g>
</svg>