<svg version="1.1" id="Layer_1" xmlns="http://www.w3.org/2000/svg" xmlns:xlink="http://www.w3.org/1999/xlink" x="0px" y="0px" viewBox="0 0 500 500" style="width: 546px;" xml:space="preserve" data-imageid="message-received-1-77" imageName="Message Received 1" class="illustrations_image">
<style type="text/css">
	.st0_message-received-1-77{fill:#FFFFFF;}
	.st1_message-received-1-77{fill:#093F68;}
	.st2_message-received-1-77{fill:#FFC9B0;}
	.st3_message-received-1-77{fill:#68E1FD;}
	.st4_message-received-1-77{fill:#F56132;}
	.st5_message-received-1-77{fill:#DFEAEF;}
</style>
<g id="circle_message-received-1-77">
	<path class="st0_message-received-1-77" d="M427.9,250c0,98.2-79.6,177.9-177.8,177.9S72.1,348.2,72.1,250c0-98.2,79.6-177.9,177.8-177.9c0,0,0,0,0,0&#10;&#9;&#9;c97.7-0.5,177.3,78.3,177.9,176C427.9,248.7,427.9,249.4,427.9,250z"/>
	<path class="st1_message-received-1-77" d="M250,429.7c-55.8,0.1-108.4-25.8-142.4-70c-24.4-31.4-37.5-70-37.4-109.7c0-99.1,80.6-179.7,179.7-179.7&#10;&#9;&#9;S429.7,150.9,429.7,250c0.1,39.7-13,78.3-37.4,109.7C358.4,403.9,305.8,429.8,250,429.7L250,429.7z M250,74c-97,0-176,79-176,176&#10;&#9;&#9;c-0.1,38.9,12.7,76.7,36.6,107.4c59.2,77,169.6,91.4,246.6,32.2c12.1-9.3,22.9-20.1,32.2-32.2c23.9-30.7,36.8-68.5,36.6-107.4&#10;&#9;&#9;C426,153,347,74,250,74z"/>
</g>
<g id="device_message-received-1-77">
	<path class="st2_message-received-1-77" d="M249.2,335.6c0,0-8,8-17.3,18c-13.1,14.1-28.9,32.1-28.9,37.1v30.8c-37.3-10.2-70.3-32.3-93.9-63&#10;&#9;&#9;c0.9-13.7,2.7-26.6,6.3-35.5c5.5-13.7,25.3-29,44.9-41.5c3.6-2.3,7.1-4.5,10.6-6.5c18.7-11.1,34.8-18.7,34.8-18.7l14.5,26.3&#10;&#9;&#9;L249.2,335.6z"/>
	<path class="st1_message-received-1-77" d="M203,423.5c-0.2,0-0.3,0-0.5-0.1c-37.7-10.4-71-32.8-94.9-63.7c-0.3-0.4-0.4-0.8-0.4-1.3&#10;&#9;&#9;c1-15.8,3.2-28,6.4-36.1c4.8-11.9,20.1-26.1,45.6-42.4c3.8-2.4,7.4-4.6,10.7-6.5c18.6-11,34.8-18.7,35-18.8c0.9-0.4,2-0.1,2.5,0.8&#10;&#9;&#9;l43.5,79.2c0.4,0.7,0.3,1.6-0.3,2.2c-0.1,0.1-8.1,8.1-17.3,18c-26.4,28.3-28.4,34.6-28.4,35.8v30.8c0,0.6-0.3,1.1-0.7,1.5&#10;&#9;&#9;C203.8,423.4,203.4,423.5,203,423.5z M111,358c22.9,29.3,54.4,50.7,90.1,61.1v-28.3c0-1.9,0-6.8,29.4-38.4&#10;&#9;&#9;c7.4-7.9,13.9-14.6,16.4-17l-42-76.5c-4.5,2.2-18,8.9-33.1,17.8c-3.3,1.9-6.8,4.1-10.6,6.5c-24.5,15.6-39.8,29.6-44.2,40.6&#10;&#9;&#9;C114.1,331.4,112,342.9,111,358L111,358z"/>
	<path class="st2_message-received-1-77" d="M390.9,358.5c-23.6,30.7-56.6,52.8-93.9,63v-30.8c0-5-15.8-23-28.9-37.1c-9.3-10-17.3-18-17.3-18l29.1-52.9&#10;&#9;&#9;l14.5-26.3c0,0,16.1,7.6,34.8,18.7c3.5,2,7,4.2,10.6,6.5c19.6,12.5,39.4,27.8,44.9,41.5C388.2,331.9,390,344.8,390.9,358.5z"/>
	<path class="st1_message-received-1-77" d="M297,423.5c-1,0-1.9-0.8-1.9-1.9v-30.8c0-1.2-2-7.5-28.4-35.8c-9.2-9.9-17.2-17.9-17.3-18&#10;&#9;&#9;c-0.6-0.6-0.7-1.5-0.3-2.2l43.5-79.2c0.5-0.9,1.6-1.2,2.5-0.8c0.2,0.1,16.4,7.8,35,18.8c3.3,1.9,6.9,4.1,10.6,6.5&#10;&#9;&#9;c25.5,16.2,40.9,30.5,45.6,42.4c3.2,8.1,5.4,20.2,6.4,36.1c0,0.5-0.1,0.9-0.4,1.3c-23.9,30.9-57.2,53.3-94.9,63.7&#10;&#9;&#9;C297.4,423.4,297.2,423.5,297,423.5z M253.1,335.3c2.4,2.5,9,9.2,16.4,17c29.4,31.6,29.4,36.5,29.4,38.4v28.3&#10;&#9;&#9;c35.7-10.4,67.2-31.8,90.1-61.1c-1-15.1-3-26.6-6.1-34.2c-4.4-11-19.7-25-44.2-40.6c-3.7-2.4-7.3-4.5-10.5-6.4&#10;&#9;&#9;c-15.1-8.9-28.6-15.6-33.1-17.8L253.1,335.3z"/>
	<path class="st3_message-received-1-77 targetColor" d="M184.1,119.4h131.8c7.3,0,13.2,5.9,13.2,13.2v247.4c0,7.3-5.9,13.2-13.2,13.2H184.1c-7.3,0-13.2-5.9-13.2-13.2&#10;&#9;&#9;V132.7C170.9,125.4,176.8,119.4,184.1,119.4z" style="fill: rgb(104, 225, 253);"/>
	<path class="st1_message-received-1-77" d="M314.7,395.2H185.3c-9,0-16.2-7.3-16.3-16.2V133.8c0-9,7.3-16.2,16.3-16.3h129.5c9,0,16.3,7.3,16.3,16.3V379&#10;&#9;&#9;C331,388,323.7,395.2,314.7,395.2z M185.3,121.3c-6.9,0-12.5,5.6-12.5,12.5V379c0,6.9,5.6,12.5,12.5,12.5h129.5&#10;&#9;&#9;c6.9,0,12.5-5.6,12.5-12.5V133.8c0-6.9-5.6-12.5-12.5-12.5H185.3z"/>
	<path class="st1_message-received-1-77" d="M249.1,384.6c-6.4,0-11.6-5.2-11.6-11.6c0-6.4,5.2-11.6,11.6-11.6c6.4,0,11.5,5.2,11.6,11.5&#10;&#9;&#9;C260.7,379.4,255.5,384.6,249.1,384.6z M249.1,365.2c-4.3,0-7.8,3.5-7.8,7.8c0,4.3,3.5,7.8,7.8,7.8c4.3,0,7.8-3.5,7.8-7.8&#10;&#9;&#9;C256.9,368.7,253.4,365.2,249.1,365.2L249.1,365.2z"/>
	<rect x="170.9" y="140.4" class="st1_message-received-1-77" width="158.2" height="213.3"/>
	<path class="st1_message-received-1-77" d="M329.1,355.6H170.9c-1,0-1.9-0.9-1.9-1.9V140.4c0-1,0.8-1.9,1.9-1.9c0,0,0,0,0,0h158.2c1,0,1.9,0.8,1.9,1.9&#10;&#9;&#9;c0,0,0,0,0,0v213.3C331,354.7,330.1,355.6,329.1,355.6z M172.8,351.8h154.4V142.3H172.8L172.8,351.8z"/>
	<path class="st1_message-received-1-77" d="M242.1,132.1h-3.2c-1-0.1-1.8-1-1.7-2c0.1-0.9,0.8-1.7,1.7-1.7h3.2c1,0.1,1.8,1,1.7,2&#10;&#9;&#9;C243.8,131.3,243.1,132.1,242.1,132.1z"/>
	<path class="st1_message-received-1-77" d="M261.1,132.1h-14.5c-1-0.1-1.8-1-1.7-2c0.1-0.9,0.8-1.7,1.7-1.7h14.5c1,0.1,1.8,1,1.7,2&#10;&#9;&#9;C262.8,131.3,262,132.1,261.1,132.1z"/>
	<path class="st2_message-received-1-77" d="M367.5,364.8c0,0-56.1-64.1-69.6-62.6s-22.5,13.3-17,27s51.1,56.1,51.1,56.1c-9.6,6.8-16.7,16.6-20.1,27.9"/>
	<path class="st1_message-received-1-77" d="M311.9,415.1c-0.2,0-0.4,0-0.5-0.1c-1-0.3-1.6-1.3-1.3-2.3c3.3-10.9,9.9-20.6,18.9-27.6&#10;&#9;&#9;c-8.4-7.9-44.8-42.6-49.9-55.2c-2.7-6.7-2.3-13.4,1-19c3.5-5.9,9.9-9.8,17.5-10.6c0.2,0,0.4,0,0.6,0c14.9,0,64.9,56.7,70.7,63.3&#10;&#9;&#9;c0.6,0.8,0.5,2-0.4,2.6c-0.8,0.6-1.8,0.5-2.5-0.2c-21.4-24.5-58.8-62.9-68-62c-6.4,0.7-11.8,3.9-14.7,8.8c-2.7,4.5-3,10.1-0.8,15.7&#10;&#9;&#9;c5.3,13.2,50.2,55,50.6,55.4c0.4,0.4,0.7,1,0.6,1.5c-0.1,0.6-0.4,1.1-0.9,1.4c-9.2,6.6-16,16-19.3,26.8&#10;&#9;&#9;C313.4,414.6,312.7,415.1,311.9,415.1z"/>
	<path class="st2_message-received-1-77" d="M132.5,364.8c0,0,56.1-64.1,69.6-62.6s22.5,13.3,17,27s-51.1,56.1-51.1,56.1c9.6,6.8,16.7,16.6,20.1,27.9"/>
	<path class="st1_message-received-1-77" d="M188.1,415.1c-0.8,0-1.6-0.5-1.8-1.4c-3.3-10.8-10.1-20.2-19.3-26.8c-0.9-0.5-1.2-1.7-0.6-2.6&#10;&#9;&#9;c0.1-0.2,0.2-0.3,0.3-0.4c0.4-0.4,45.3-42.2,50.6-55.4c2.2-5.6,2-11.1-0.8-15.7c-2.9-4.9-8.3-8.1-14.7-8.8c-9.2-1-46.6,37.5-68,62&#10;&#9;&#9;c-0.7,0.8-1.9,0.9-2.7,0.2c-0.8-0.7-0.9-1.9-0.2-2.7c5.8-6.6,57.1-64.8,71.2-63.2c7.6,0.9,14,4.7,17.6,10.6c3.3,5.6,3.7,12.3,1,19&#10;&#9;&#9;c-5.1,12.6-41.4,47.3-49.9,55.2c9,7,15.7,16.6,19,27.5c0.3,1-0.3,2-1.3,2.3c0,0,0,0,0,0C188.5,415.1,188.3,415.1,188.1,415.1z"/>
</g>
<g id="message_message-received-1-77">
	<path class="st0_message-received-1-77" d="M164.4,169.5h171.2c4.6,0,8.3,3.7,8.3,8.3v96.7c0,4.6-3.7,8.3-8.3,8.3H164.4c-4.6,0-8.3-3.7-8.3-8.3v-96.7&#10;&#9;&#9;C156.1,173.2,159.8,169.5,164.4,169.5z"/>
	<path class="st1_message-received-1-77" d="M335.4,284.6H164.6c-5.7,0-10.4-4.6-10.4-10.4v-96.3c0-5.7,4.6-10.4,10.4-10.4h170.8c5.7,0,10.4,4.6,10.4,10.4&#10;&#9;&#9;v96.3C345.8,280,341.1,284.6,335.4,284.6z M164.6,171.3c-3.6,0-6.6,3-6.6,6.6v96.3c0,3.6,3,6.6,6.6,6.6h170.8c3.6,0,6.6-3,6.6-6.6&#10;&#9;&#9;v-96.3c0-3.6-3-6.6-6.6-6.6H164.6z"/>
	<path class="st1_message-received-1-77" d="M250,240.7c-0.4,0-0.8-0.1-1.1-0.4l-91-67.2c-0.9-0.5-1.2-1.7-0.7-2.6s1.7-1.2,2.6-0.7&#10;&#9;&#9;c0.1,0.1,0.2,0.1,0.3,0.2l89.9,66.4l89.9-66.4c0.8-0.7,2-0.7,2.7,0.1s0.7,2-0.1,2.7c-0.1,0.1-0.2,0.2-0.3,0.2l-91,67.2&#10;&#9;&#9;C250.8,240.5,250.4,240.7,250,240.7z"/>
	<path class="st1_message-received-1-77" d="M341,282.5c-0.4,0-0.8-0.1-1.1-0.4l-73.6-54.7c-0.9-0.6-1.1-1.7-0.6-2.6s1.7-1.1,2.6-0.6&#10;&#9;&#9;c0.1,0,0.2,0.1,0.2,0.2l73.6,54.7c0.8,0.6,1,1.8,0.4,2.6c0,0,0,0,0,0C342.1,282.2,341.6,282.5,341,282.5z"/>
	<path class="st1_message-received-1-77" d="M159,282.5c-1,0-1.9-0.9-1.9-1.9c0-0.6,0.3-1.1,0.8-1.5l73.6-54.7c0.8-0.7,2-0.6,2.7,0.2s0.6,2-0.2,2.7&#10;&#9;&#9;c-0.1,0.1-0.1,0.1-0.2,0.2l-73.6,54.7C159.8,282.3,159.4,282.5,159,282.5z"/>
	<circle class="st4_message-received-1-77" cx="167" cy="186.2" r="29"/>
	<path class="st1_message-received-1-77" d="M167,217.1c-17.1,0-30.9-13.9-30.8-31c0-17.1,13.9-30.9,31-30.8c17,0,30.8,13.9,30.8,30.9&#10;&#9;&#9;C198,203.3,184.1,217.1,167,217.1C167,217.1,167,217.1,167,217.1z M167,159.1c-15,0-27.1,12.2-27.1,27.1s12.2,27.1,27.1,27.1&#10;&#9;&#9;s27.1-12.2,27.1-27.1l0,0C194.1,171.2,182,159.1,167,159.1L167,159.1z"/>
	<path class="st0_message-received-1-77" d="M165.2,170.7l-3.4,2.9l-5.7,4.8l-1.1,0.9l1.1,1.3l2.7,3.1l6.2-5.5V202h6.4v-31.3H165.2z"/>
	<path class="st1_message-received-1-77" d="M171.4,170.7V202H165v-23.8l-6.2,5.5l-2.7-3.1l-1.1-1.3l1.1-0.9l5.7-4.8l3.4-2.9L171.4,170.7 M171.4,167h-6.2&#10;&#9;&#9;c-0.9,0-1.8,0.3-2.4,0.9l-3.4,2.9l-5.7,4.8l-1.1,0.9c-1.6,1.4-1.8,3.7-0.4,5.3c0,0,0,0,0,0l1.1,1.3l2.7,3.1&#10;&#9;&#9;c0.7,0.8,1.6,1.2,2.6,1.3h0.2c0.9,0,1.8-0.3,2.5-0.9V202c0,2.1,1.7,3.8,3.8,3.8c0,0,0,0,0,0h6.4c2.1,0,3.8-1.7,3.8-3.8c0,0,0,0,0,0&#10;&#9;&#9;v-31.3C175.1,168.7,173.5,167,171.4,167C171.4,167,171.4,167,171.4,167L171.4,167z"/>
</g>
<g id="lines_message-received-1-77">
	<path class="st5_message-received-1-77" d="M129.2,169.6c-0.2,0-0.5,0-0.7-0.1l-22-8.5c-1-0.4-1.5-1.5-1.1-2.4s1.5-1.5,2.4-1.1l22,8.5&#10;&#9;&#9;c1,0.4,1.5,1.4,1.1,2.4C130.7,169.1,130,169.6,129.2,169.6L129.2,169.6z"/>
	<path class="st5_message-received-1-77" d="M107.2,279.2c-1,0-1.9-0.8-1.9-1.9c0-0.8,0.5-1.5,1.2-1.8l22-8.5c1-0.3,2.1,0.2,2.4,1.2c0.3,0.9-0.1,2-1,2.4&#10;&#9;&#9;l-22,8.5C107.7,279.2,107.5,279.2,107.2,279.2z"/>
	<path class="st5_message-received-1-77" d="M126,220.1h-25c-1,0.1-1.9-0.7-2-1.7c-0.1-1,0.7-1.9,1.7-2c0.1,0,0.2,0,0.3,0h25c1-0.1,1.9,0.7,2,1.7&#10;&#9;&#9;c0.1,1-0.7,1.9-1.7,2C126.2,220.1,126.1,220.1,126,220.1z"/>
	<path class="st5_message-received-1-77" d="M370.8,169.6c-1,0-1.9-0.8-1.9-1.9c0-0.8,0.5-1.5,1.2-1.8l22-8.5c1-0.4,2.1,0.1,2.4,1.1c0.4,1-0.1,2.1-1.1,2.4&#10;&#9;&#9;l-22,8.5C371.3,169.5,371,169.6,370.8,169.6z"/>
	<path class="st5_message-received-1-77" d="M392.8,279.2c-0.2,0-0.5,0-0.7-0.1l-22-8.5c-1-0.4-1.4-1.6-0.9-2.5c0.4-0.9,1.4-1.3,2.3-1l22,8.5&#10;&#9;&#9;c1,0.4,1.5,1.4,1.1,2.4C394.3,278.8,393.6,279.2,392.8,279.2L392.8,279.2z"/>
	<path class="st5_message-received-1-77" d="M399,220.1h-25c-1,0.1-1.9-0.7-2-1.7c-0.1-1,0.7-1.9,1.7-2c0.1,0,0.2,0,0.3,0h25c1-0.1,1.9,0.7,2,1.7&#10;&#9;&#9;c0.1,1-0.7,1.9-1.7,2C399.2,220.1,399.1,220.1,399,220.1z"/>
</g>
</svg>